<?xml version="1.0" encoding="UTF-8" standalone="no"?>
<!DOCTYPE svg PUBLIC "-//W3C//DTD SVG 1.1//EN" "http://www.w3.org/Graphics/SVG/1.1/DTD/svg11.dtd">
<svg style="overflow: visible;" width="100%" height="100%"><g transform="translate(41.54999923706055,16)"><defs><linearGradient id="varkUe-494" x1="0%" x2="0%" y1="0%" y2="100%"><stop offset="0%" stop-color="#EA4335" stop-opacity="0.38"></stop><stop offset="90%" stop-color="#FCDEE5" stop-opacity="0"></stop></linearGradient><mask id="DAdeKc-494"><rect width="606.4500007629395" height="228" y="-2" fill="white"></rect></mask></defs><g class="pmHZZb"><g transform="translate(0,224)" fill="none" font-size="10" font-family="sans-serif" text-anchor="middle"><path class="domain" stroke="currentColor" d="M0.5,0.5H606.9500007629395" style="color: rgb(95, 99, 104); stroke-width: 1px; opacity: 1;"></path><g class="tick" opacity="1" transform="translate(0.5,0)"><line stroke="currentColor" y2="6" style="color: rgb(95, 99, 104); stroke-width: 2px;"></line><text fill="currentColor" y="14" dy="0.71em" style="font-family: Roboto, Arial, sans-serif; font-size: 12px; line-height: 16px; color: rgb(95, 99, 104);">9:00 AM</text></g><g class="tick" opacity="1" transform="translate(140.45000017606296,0)"><line stroke="currentColor" y2="6" style="color: rgb(95, 99, 104); stroke-width: 2px;"></line><text fill="currentColor" y="14" dy="0.71em" style="font-family: Roboto, Arial, sans-serif; font-size: 12px; line-height: 16px; color: rgb(95, 99, 104);">11:00 AM</text></g><g class="tick" opacity="1" transform="translate(280.4000003521259,0)"><line stroke="currentColor" y2="6" style="color: rgb(95, 99, 104); stroke-width: 2px;"></line><text fill="currentColor" y="14" dy="0.71em" style="font-family: Roboto, Arial, sans-serif; font-size: 12px; line-height: 16px; color: rgb(95, 99, 104);">1:00 PM</text></g><g class="tick" opacity="1" transform="translate(420.35000052818884,0)"><line stroke="currentColor" y2="6" style="color: rgb(95, 99, 104); stroke-width: 2px;"></line><text fill="currentColor" y="14" dy="0.71em" style="font-family: Roboto, Arial, sans-serif; font-size: 12px; line-height: 16px; color: rgb(95, 99, 104);">3:00 PM</text></g><g class="tick" opacity="1" transform="translate(560.3000007042518,0)"><line stroke="currentColor" y2="6" style="color: rgb(95, 99, 104); stroke-width: 2px;"></line><text fill="currentColor" y="14" dy="0.71em" style="font-family: Roboto, Arial, sans-serif; font-size: 12px; line-height: 16px; color: rgb(95, 99, 104);">5:00 PM</text></g></g><g transform="translate(0, 0)" fill="none" font-size="10" font-family="sans-serif" text-anchor="end"><g class="tick" opacity="1" transform="translate(0,224.5)"><line stroke="currentColor" x2="606.4500007629395" style="opacity: 0.5; stroke-width: 1px; color: rgb(232, 234, 237);" transform="translate(0, 0)"></line><text fill="currentColor" x="-8" dy="0.32em" style="font-family: Roboto, Arial, sans-serif; font-size: 12px; line-height: 16px; letter-spacing: 0.3px; color: rgb(95, 99, 104);">1.30</text></g><g class="tick" opacity="1" transform="translate(0,168.49999999999994)"><line stroke="currentColor" x2="606.4500007629395" style="opacity: 0.5; stroke-width: 1px; color: rgb(232, 234, 237);" transform="translate(0, 0)"></line><text fill="currentColor" x="-8" dy="0.32em" style="font-family: Roboto, Arial, sans-serif; font-size: 12px; line-height: 16px; letter-spacing: 0.3px; color: rgb(95, 99, 104);">1.35</text></g><g class="tick" opacity="1" transform="translate(0,112.50000000000013)"><line stroke="currentColor" x2="606.4500007629395" style="opacity: 0.5; stroke-width: 1px; color: rgb(232, 234, 237);" transform="translate(0, 0)"></line><text fill="currentColor" x="-8" dy="0.32em" style="font-family: Roboto, Arial, sans-serif; font-size: 12px; line-height: 16px; letter-spacing: 0.3px; color: rgb(95, 99, 104);">1.40</text></g><g class="tick" opacity="1" transform="translate(0,56.500000000000085)"><line stroke="currentColor" x2="606.4500007629395" style="opacity: 0.5; stroke-width: 1px; color: rgb(232, 234, 237);" transform="translate(0, 0)"></line><text fill="currentColor" x="-8" dy="0.32em" style="font-family: Roboto, Arial, sans-serif; font-size: 12px; line-height: 16px; letter-spacing: 0.3px; color: rgb(95, 99, 104);">1.45</text></g><g class="tick" opacity="1" transform="translate(0,0.5)"><line stroke="currentColor" x2="606.4500007629395" style="opacity: 0.5; stroke-width: 1px; color: rgb(232, 234, 237);" transform="translate(0, 0)"></line><text fill="currentColor" x="-8" dy="0.32em" style="font-family: Roboto, Arial, sans-serif; font-size: 12px; line-height: 16px; letter-spacing: 0.3px; color: rgb(95, 99, 104);">1.50</text></g></g></g><g class="d2NTdf"></g><g class="gJBfM" mask="url(https://www.google.com/finance/quote/DBV:EPA?hl=en#DAdeKc-494)"><path mask="url(https://www.google.com/finance/quote/DBV:EPA?hl=en#YwQBze-494)" fill="url(https://www.google.com/finance/quote/DBV:EPA?hl=en#varkUe-494)" d="M1.1662500014671913,67.20000000000007C1.943750002445319,73.17333333333352,2.7212500034234464,79.14666666666695,3.498750004401574,80.6400000000001C3.887500004890638,81.38666666666667,4.276250005379701,81.75999999999996,4.665000005868765,81.75999999999996C5.8312500073359566,81.75999999999996,6.997500008803148,80.64,8.16375001027034,78.40000000000009C8.941250011248467,76.90666666666681,9.718750012226595,68.31999999999996,10.496250013204723,68.31999999999996C11.27375001418285,68.31999999999996,12.051250015160976,133.65333333333356,12.828750016139104,134.40000000000015C13.606250017117231,135.14666666666673,14.383750018095359,135.52000000000004,15.161250019073487,135.52000000000004C15.550000019562551,135.52000000000004,15.938750020051614,87.3600000000001,16.32750002054068,87.3600000000001C17.105000021518805,87.3600000000001,17.882500022496934,123.20000000000013,18.66000002347506,123.20000000000013C19.048750023964125,123.20000000000013,19.437500024453186,118.72000000000013,19.82625002494225,118.72000000000013C20.60375002592038,118.72000000000013,21.381250026898506,120.21333333333347,22.158750027876636,123.20000000000013C22.5475000283657,124.69333333333347,22.93625002885476,129.92000000000013,23.325000029343826,132.16000000000014C23.71375002983289,134.40000000000015,24.102500030321952,133.84000000000017,24.491250030811017,136.64000000000016C24.88000003130008,139.44000000000014,25.268750031789143,148.96000000000004,25.657500032278207,148.96000000000004C26.046250032767272,148.96000000000004,26.435000033256337,141.11999999999992,26.8237500337454,141.11999999999992C27.601250034723527,141.11999999999992,28.378750035701657,167.99999999999994,29.156250036679783,167.99999999999994C29.545000037168847,167.99999999999994,29.93375003765791,154.55999999999995,30.322500038146973,154.55999999999995C31.488750039614164,154.55999999999995,32.65500004108136,155.30666666666662,33.82125004254855,156.79999999999993C34.59875004352668,157.79555555555547,35.3762500445048,160.53333333333327,36.15375004548293,167.99999999999994C36.54250004597199,171.7333333333333,36.93125004646106,202.72000000000008,37.32000004695012,202.72000000000008C38.09750004792825,202.72000000000008,38.87500004890637,193.01333333333358,39.6525000498845,191.5200000000001C40.04125005037356,190.77333333333334,40.43000005086263,190.39999999999998,40.81875005135169,190.39999999999998C41.59625005232982,190.39999999999998,42.373750053307944,191.14666666666665,43.15125005428607,192.63999999999996C43.54000005477514,193.38666666666663,43.9287500552642,201.59999999999997,44.31750005575327,201.59999999999997C44.70625005624233,201.59999999999997,45.095000056731394,191.5200000000001,45.483750057220455,191.5200000000001C45.87250005770952,191.5200000000001,46.261250058198584,202.72000000000008,46.65000005868765,207.2000000000001C47.038750059176714,211.6800000000001,47.42750005966578,218.40000000000012,47.81625006015484,218.40000000000012C48.205000060643904,218.40000000000012,48.59375006113297,207.2000000000001,48.982500061622034,207.2000000000001C49.371250062111095,207.2000000000001,49.76000006260016,207.2000000000001,50.148750063089224,207.2000000000001C51.315000064556415,207.2000000000001,52.48125006602361,205.3333333333334,53.6475000674908,201.59999999999997C54.036250067979864,200.3555555555555,54.425000068468925,196.00000000000009,54.81375006895799,196.00000000000009C55.202500069447055,196.00000000000009,55.591250069936116,196.00000000000009,55.980000070425184,196.00000000000009C56.368750070914245,196.00000000000009,56.75750007140331,196.3733333333334,57.14625007189237,197.11999999999998C57.9237500728705,198.61333333333317,58.70125007384863,212.79999999999998,59.478750074826756,212.79999999999998C59.86750007531582,212.79999999999998,60.256250075804886,207.9466666666668,60.64500007629395,207.2000000000001C62.58875007873927,203.46666666666667,64.5325000811846,205.3333333333334,66.4762500836299,201.59999999999997C67.25375008460803,200.1066666666666,68.03125008558617,197.49333333333334,68.80875008656429,189.2800000000001C69.19750008705336,185.17333333333346,69.58625008754241,169.12000000000006,69.97500008803148,169.12000000000006C71.14125008949867,169.12000000000006,72.30750009096586,171.88266666666664,73.47375009243305,176.95999999999995C74.25125009341117,180.34488888888885,75.02875009438931,190.39999999999998,75.80625009536743,190.39999999999998C77.75000009781274,190.39999999999998,79.69375010025807,182.5600000000001,81.63750010270338,182.5600000000001C82.41500010368152,182.5600000000001,83.19250010465964,190.39999999999998,83.97000010563778,190.39999999999998C85.52500010759404,190.39999999999998,87.08000010955028,169.12000000000006,88.63500011150654,169.12000000000006C89.41250011248466,169.12000000000006,90.19000011346279,171.36000000000007,90.96750011444091,171.36000000000007C91.74500011541905,171.36000000000007,92.52250011639717,171.36000000000007,93.3000001173753,171.36000000000007C93.68875011786437,171.36000000000007,94.07750011835343,171.36000000000007,94.4662501188425,171.36000000000007C94.85500011933156,171.36000000000007,95.24375011982062,170.23999999999995,95.63250012030969,170.23999999999995C96.02125012079874,170.23999999999995,96.41000012128781,176.95999999999995,96.79875012177686,176.95999999999995C97.18750012226593,176.95999999999995,97.576250122755,157.92000000000007,97.96500012324407,157.92000000000007C100.68625012666752,157.92000000000007,103.40750013009095,172.46303030303022,106.1287501335144,179.19999999999993C107.68375013547066,183.0496969696969,109.2387501374269,184.8746666666667,110.79375013938316,190.39999999999998C111.18250013987223,191.78133333333332,111.5712501403613,194.87999999999997,111.96000014085037,194.87999999999997C112.73750014182849,194.87999999999997,113.51500014280661,194.87999999999997,114.29250014378474,194.87999999999997C116.23625014623005,194.87999999999997,118.18000014867538,190.02666666666667,120.12375015112069,180.32000000000008C120.51250015160976,178.37866666666673,120.90125015209883,163.51999999999992,121.2900001525879,163.51999999999992C121.67875015307696,163.51999999999992,122.06750015356602,163.51999999999992,122.45625015405508,163.51999999999992C122.84500015454415,163.51999999999992,123.2337501550332,157.92000000000007,123.62250015552227,157.92000000000007C124.01125015601134,157.92000000000007,124.4000001565004,160.96888888888896,124.78875015698947,162.40000000000006C126.73250015943479,169.5555555555556,128.67625016188012,179.19999999999993,130.62000016432543,179.19999999999993C131.7862501657926,179.19999999999993,132.9525001672598,157.92000000000007,134.118750168727,157.92000000000007C136.0625001711723,157.92000000000007,138.00625017361764,157.92000000000007,139.95000017606296,157.92000000000007C141.11625017753013,157.92000000000007,142.28250017899734,158.63555555555553,143.44875018046451,159.03999999999994C146.9475001848661,160.25333333333316,150.44625018926766,160.53333333333327,153.94500019366924,163.51999999999992C154.3337501941583,163.85185185185176,154.72250019464735,179.19999999999993,155.11125019513642,179.19999999999993C157.4437501980708,179.19999999999993,159.7762502010052,156.79999999999993,162.1087502039396,156.79999999999993C163.27500020540677,156.79999999999993,164.44125020687397,156.79999999999993,165.60750020834115,156.79999999999993C167.55125021078646,156.79999999999993,169.4950002132318,164.64000000000004,171.43875021567712,164.64000000000004C172.6050002171443,164.64000000000004,173.7712502186115,164.64000000000004,174.93750022007868,164.64000000000004C175.7150002210568,164.64000000000004,176.49250022203495,156.79999999999993,177.27000022301308,156.79999999999993C178.82500022496933,156.79999999999993,180.38000022692557,178.08000000000007,181.93500022888182,178.08000000000007C183.87875023132713,178.08000000000007,185.82250023377247,165.51111111111123,187.7662502362178,162.40000000000006C190.09875023915217,158.66666666666663,192.43125024208658,156.79999999999993,194.76375024502096,156.79999999999993C195.93000024648813,156.79999999999993,197.09625024795534,159.5333333333334,198.26250024942252,162.40000000000006C199.81750025137876,166.2222222222223,201.37250025333503,179.19999999999993,202.92750025529128,179.19999999999993C207.59250026116004,179.19999999999993,212.2575002670288,173.45066666666662,216.92250027289757,170.23999999999995C220.03250027681008,168.0995555555555,223.1425002807226,163.51999999999992,226.25250028463512,163.51999999999992C230.14000028952574,163.51999999999992,234.0275002944164,181.43999999999994,237.91500029930702,181.43999999999994C243.746250306643,181.43999999999994,249.57750031397893,179.19999999999993,255.4087503213149,179.19999999999993C256.186250322293,179.19999999999993,256.96375032327114,179.19999999999993,257.7412503242493,179.19999999999993C259.6850003266946,179.19999999999993,261.6287503291399,167.99999999999994,263.5725003315852,167.99999999999994C266.29375033500867,167.99999999999994,269.0150003384321,171.73333333333326,271.73625034185557,179.19999999999993C272.1250003423446,180.2666666666666,272.5137503428337,184.80000000000007,272.90250034332274,184.80000000000007C273.6800003443009,184.80000000000007,274.457500345279,175.84000000000006,275.23500034625715,175.84000000000006C276.0125003472353,175.84000000000006,276.79000034821337,175.84000000000006,277.5675003491915,175.84000000000006C277.95625034968054,175.84000000000006,278.34500035016964,175.84000000000006,278.7337503506587,175.84000000000006C279.5112503516368,175.84000000000006,280.28875035261495,167.87555555555556,281.0662503535931,163.51999999999992C281.45500035408213,161.34222222222215,281.8437503545712,158.60444444444437,282.23250035506027,156.79999999999993C283.0100003560384,153.19111111111096,283.78750035701654,154.9333333333333,284.5650003579947,151.20000000000005C284.9537503584837,149.33333333333346,285.3425003589728,142.24000000000004,285.73125035946185,142.24000000000004C290.0075003648416,142.24000000000004,294.28375037022124,153.99999999999994,298.56000037560096,156.79999999999993C300.11500037755724,157.81818181818176,301.67000037951345,159.03999999999994,303.2250003814697,159.03999999999994C304.780000383426,159.03999999999994,306.3350003853822,154.55999999999995,307.8900003873385,154.55999999999995C311.000000391251,154.55999999999995,314.1100003951635,155.68000000000006,317.220000399076,155.68000000000006C319.1637504015213,155.68000000000006,321.10750040396664,153.44000000000005,323.05125040641195,153.44000000000005C323.44000040690105,153.44000000000005,323.8287504073901,153.44000000000005,324.2175004078792,153.44000000000005C324.6062504083682,153.44000000000005,324.9950004088573,145.5999999999999,325.38375040934636,145.5999999999999C326.1612504103245,145.5999999999999,326.9387504113026,157.92000000000007,327.7162504122807,157.92000000000007C328.10500041276975,157.92000000000007,328.49375041325885,157.92000000000007,328.8825004137479,157.92000000000007C330.8262504161932,157.92000000000007,332.7700004186386,150.07999999999993,334.7137504210839,150.07999999999993C343.6550004323324,150.07999999999993,352.5962504435808,150.07999999999993,361.5375004548293,150.07999999999993C365.4250004597199,150.07999999999993,369.3125004646106,150.07999999999993,373.2000004695012,150.07999999999993C373.97750047047936,150.07999999999993,374.75500047145744,141.11999999999992,375.5325004724356,141.11999999999992C378.253750475859,141.11999999999992,380.97500047928247,155.68000000000006,383.6962504827059,155.68000000000006C384.47375048368406,155.68000000000006,385.25125048466214,143.73333333333318,386.0287504856403,143.3599999999999C387.58375048759655,142.61333333333332,389.1387504895528,142.6288888888889,390.6937504915091,142.24000000000004C403.1337505071591,139.1288888888893,415.5737505228092,138.1333333333334,428.0137505384592,129.92000000000013C429.56875054041546,128.89333333333346,431.1237505423717,124.94222222222236,432.67875054432795,123.20000000000013C435.0112505472623,120.5866666666668,437.3437505501967,118.72000000000013,439.67625055313107,118.72000000000013C440.4537505541092,118.72000000000013,441.23125055508734,123.20000000000013,442.0087505560655,123.20000000000013C442.3975005565545,123.20000000000013,442.7862505570436,123.20000000000013,443.17500055753266,123.20000000000013C445.50750056046707,123.20000000000013,447.8400005634014,119.88751515151527,450.1725005663358,118.72000000000013C452.11625056878114,117.74707070707083,454.06000057122645,116.48000000000013,456.00375057367177,116.48000000000013C456.7812505746499,116.48000000000013,457.55875057562804,116.48000000000013,458.3362505766062,116.48000000000013C460.2800005790515,116.48000000000013,462.2237505814968,116.48000000000013,464.1675005839421,116.48000000000013C468.8325005898109,116.48000000000013,473.49750059567964,112.00000000000013,478.1625006015484,112.00000000000013C478.94000060252654,112.00000000000013,479.7175006035046,113.12,480.49500060448275,113.12C483.99375060888434,113.12,487.4925006132859,98.2545454545454,490.9912506176875,95.19999999999999C495.26750062306724,91.46666666666674,499.5437506284469,89.60000000000011,503.8200006338266,89.60000000000011C504.59750063480476,89.60000000000011,505.3750006357829,91.84000000000012,506.15250063676103,91.84000000000012C509.2625006406735,91.84000000000012,512.372500644586,89.60000000000011,515.4825006484986,89.60000000000011C519.7587506538782,89.60000000000011,524.035000659258,90.71999999999997,528.3112506646377,90.71999999999997C528.7000006651267,90.71999999999997,529.0887506656157,89.60000000000011,529.4775006661048,89.60000000000011C530.643750667572,89.60000000000011,531.8100006690391,95.19999999999999,532.9762506705064,95.19999999999999C536.475000674908,95.19999999999999,539.9737506793095,95.19999999999999,543.4725006837111,95.19999999999999C543.8612506842002,95.19999999999999,544.2500006846893,82.88000000000011,544.6387506851784,82.88000000000011C548.915000690558,82.88000000000011,553.1912506959377,89.60000000000011,557.4675007013174,89.60000000000011C559.0225007032736,89.60000000000011,560.5775007052299,89.60000000000011,562.1325007071862,89.60000000000011C564.8537507106096,89.60000000000011,567.5750007140331,89.13003921568628,570.2962507174565,88.47999999999999C574.1837507223471,87.55137254901956,578.0712507272378,83.99999999999997,581.9587507321285,83.99999999999997C584.6800007355519,83.99999999999997,587.4012507389754,89.60000000000011,590.1225007423988,89.60000000000011C590.5112507428878,89.60000000000011,590.900000743377,85.8666666666669,591.288750743866,85.12000000000009C591.677500744355,84.37333333333335,592.0662507448441,83.99999999999997,592.4550007453331,83.99999999999997C593.2325007463112,83.99999999999997,594.0100007472894,85.52444444444443,594.7875007482675,86.23999999999998C597.1200007512019,88.38666666666673,599.4525007541363,90.11333333333341,601.7850007570707,91.84000000000012L601.7850007570707,224C599.4525007541363,224,597.1200007512019,224,594.7875007482675,224C594.0100007472894,224,593.2325007463112,224,592.4550007453331,224C592.0662507448441,224,591.677500744355,224,591.288750743866,224C590.900000743377,224,590.5112507428878,224,590.1225007423988,224C587.4012507389754,224,584.6800007355519,224,581.9587507321285,224C578.0712507272378,224,574.1837507223471,224,570.2962507174565,224C567.5750007140331,224,564.8537507106096,224,562.1325007071862,224C560.5775007052299,224,559.0225007032736,224,557.4675007013174,224C553.1912506959377,224,548.915000690558,224,544.6387506851784,224C544.2500006846893,224,543.8612506842002,224,543.4725006837111,224C539.9737506793095,224,536.475000674908,224,532.9762506705064,224C531.8100006690391,224,530.643750667572,224,529.4775006661048,224C529.0887506656157,224,528.7000006651267,224,528.3112506646377,224C524.035000659258,224,519.7587506538782,224,515.4825006484986,224C512.372500644586,224,509.2625006406735,224,506.15250063676103,224C505.3750006357829,224,504.59750063480476,224,503.8200006338266,224C499.5437506284469,224,495.26750062306724,224,490.9912506176875,224C487.4925006132859,224,483.99375060888434,224,480.49500060448275,224C479.7175006035046,224,478.94000060252654,224,478.1625006015484,224C473.49750059567964,224,468.8325005898109,224,464.1675005839421,224C462.2237505814968,224,460.2800005790515,224,458.3362505766062,224C457.55875057562804,224,456.7812505746499,224,456.00375057367177,224C454.06000057122645,224,452.11625056878114,224,450.1725005663358,224C447.8400005634014,224,445.50750056046707,224,443.17500055753266,224C442.7862505570436,224,442.3975005565545,224,442.0087505560655,224C441.23125055508734,224,440.4537505541092,224,439.67625055313107,224C437.3437505501967,224,435.0112505472623,224,432.67875054432795,224C431.1237505423717,224,429.56875054041546,224,428.0137505384592,224C415.5737505228092,224,403.1337505071591,224,390.6937504915091,224C389.1387504895528,224,387.58375048759655,224,386.0287504856403,224C385.25125048466214,224,384.47375048368406,224,383.6962504827059,224C380.97500047928247,224,378.253750475859,224,375.5325004724356,224C374.75500047145744,224,373.97750047047936,224,373.2000004695012,224C369.3125004646106,224,365.4250004597199,224,361.5375004548293,224C352.5962504435808,224,343.6550004323324,224,334.7137504210839,224C332.7700004186386,224,330.8262504161932,224,328.8825004137479,224C328.49375041325885,224,328.10500041276975,224,327.7162504122807,224C326.9387504113026,224,326.1612504103245,224,325.38375040934636,224C324.9950004088573,224,324.6062504083682,224,324.2175004078792,224C323.8287504073901,224,323.44000040690105,224,323.05125040641195,224C321.10750040396664,224,319.1637504015213,224,317.220000399076,224C314.1100003951635,224,311.000000391251,224,307.8900003873385,224C306.3350003853822,224,304.780000383426,224,303.2250003814697,224C301.67000037951345,224,300.11500037755724,224,298.56000037560096,224C294.28375037022124,224,290.0075003648416,224,285.73125035946185,224C285.3425003589728,224,284.9537503584837,224,284.5650003579947,224C283.78750035701654,224,283.0100003560384,224,282.23250035506027,224C281.8437503545712,224,281.45500035408213,224,281.0662503535931,224C280.28875035261495,224,279.5112503516368,224,278.7337503506587,224C278.34500035016964,224,277.95625034968054,224,277.5675003491915,224C276.79000034821337,224,276.0125003472353,224,275.23500034625715,224C274.457500345279,224,273.6800003443009,224,272.90250034332274,224C272.5137503428337,224,272.1250003423446,224,271.73625034185557,224C269.0150003384321,224,266.29375033500867,224,263.5725003315852,224C261.6287503291399,224,259.6850003266946,224,257.7412503242493,224C256.96375032327114,224,256.186250322293,224,255.4087503213149,224C249.57750031397893,224,243.746250306643,224,237.91500029930702,224C234.0275002944164,224,230.14000028952574,224,226.25250028463512,224C223.1425002807226,224,220.03250027681008,224,216.92250027289757,224C212.2575002670288,224,207.59250026116004,224,202.92750025529128,224C201.37250025333503,224,199.81750025137876,224,198.26250024942252,224C197.09625024795534,224,195.93000024648813,224,194.76375024502096,224C192.43125024208658,224,190.09875023915217,224,187.7662502362178,224C185.82250023377247,224,183.87875023132713,224,181.93500022888182,224C180.38000022692557,224,178.82500022496933,224,177.27000022301308,224C176.49250022203495,224,175.7150002210568,224,174.93750022007868,224C173.7712502186115,224,172.6050002171443,224,171.43875021567712,224C169.4950002132318,224,167.55125021078646,224,165.60750020834115,224C164.44125020687397,224,163.27500020540677,224,162.1087502039396,224C159.7762502010052,224,157.4437501980708,224,155.11125019513642,224C154.72250019464735,224,154.3337501941583,224,153.94500019366924,224C150.44625018926766,224,146.9475001848661,224,143.44875018046451,224C142.28250017899734,224,141.11625017753013,224,139.95000017606296,224C138.00625017361764,224,136.0625001711723,224,134.118750168727,224C132.9525001672598,224,131.7862501657926,224,130.62000016432543,224C128.67625016188012,224,126.73250015943479,224,124.78875015698947,224C124.4000001565004,224,124.01125015601134,224,123.62250015552227,224C123.2337501550332,224,122.84500015454415,224,122.45625015405508,224C122.06750015356602,224,121.67875015307696,224,121.2900001525879,224C120.90125015209883,224,120.51250015160976,224,120.12375015112069,224C118.18000014867538,224,116.23625014623005,224,114.29250014378474,224C113.51500014280661,224,112.73750014182849,224,111.96000014085037,224C111.5712501403613,224,111.18250013987223,224,110.79375013938316,224C109.2387501374269,224,107.68375013547066,224,106.1287501335144,224C103.40750013009095,224,100.68625012666752,224,97.96500012324407,224C97.576250122755,224,97.18750012226593,224,96.79875012177686,224C96.41000012128781,224,96.02125012079874,224,95.63250012030969,224C95.24375011982062,224,94.85500011933156,224,94.4662501188425,224C94.07750011835343,224,93.68875011786437,224,93.3000001173753,224C92.52250011639717,224,91.74500011541905,224,90.96750011444091,224C90.19000011346279,224,89.41250011248466,224,88.63500011150654,224C87.08000010955028,224,85.52500010759404,224,83.97000010563778,224C83.19250010465964,224,82.41500010368152,224,81.63750010270338,224C79.69375010025807,224,77.75000009781274,224,75.80625009536743,224C75.02875009438931,224,74.25125009341117,224,73.47375009243305,224C72.30750009096586,224,71.14125008949867,224,69.97500008803148,224C69.58625008754241,224,69.19750008705336,224,68.80875008656429,224C68.03125008558617,224,67.25375008460803,224,66.4762500836299,224C64.5325000811846,224,62.58875007873927,224,60.64500007629395,224C60.256250075804886,224,59.86750007531582,224,59.478750074826756,224C58.70125007384863,224,57.9237500728705,224,57.14625007189237,224C56.75750007140331,224,56.368750070914245,224,55.980000070425184,224C55.591250069936116,224,55.202500069447055,224,54.81375006895799,224C54.425000068468925,224,54.036250067979864,224,53.6475000674908,224C52.48125006602361,224,51.315000064556415,224,50.148750063089224,224C49.76000006260016,224,49.371250062111095,224,48.982500061622034,224C48.59375006113297,224,48.205000060643904,224,47.81625006015484,224C47.42750005966578,224,47.038750059176714,224,46.65000005868765,224C46.261250058198584,224,45.87250005770952,224,45.483750057220455,224C45.095000056731394,224,44.70625005624233,224,44.31750005575327,224C43.9287500552642,224,43.54000005477514,224,43.15125005428607,224C42.373750053307944,224,41.59625005232982,224,40.81875005135169,224C40.43000005086263,224,40.04125005037356,224,39.6525000498845,224C38.87500004890637,224,38.09750004792825,224,37.32000004695012,224C36.93125004646106,224,36.54250004597199,224,36.15375004548293,224C35.3762500445048,224,34.59875004352668,224,33.82125004254855,224C32.65500004108136,224,31.488750039614164,224,30.322500038146973,224C29.93375003765791,224,29.545000037168847,224,29.156250036679783,224C28.378750035701657,224,27.601250034723527,224,26.8237500337454,224C26.435000033256337,224,26.046250032767272,224,25.657500032278207,224C25.268750031789143,224,24.88000003130008,224,24.491250030811017,224C24.102500030321952,224,23.71375002983289,224,23.325000029343826,224C22.93625002885476,224,22.5475000283657,224,22.158750027876636,224C21.381250026898506,224,20.60375002592038,224,19.82625002494225,224C19.437500024453186,224,19.048750023964125,224,18.66000002347506,224C17.882500022496934,224,17.105000021518805,224,16.32750002054068,224C15.938750020051614,224,15.550000019562551,224,15.161250019073487,224C14.383750018095359,224,13.606250017117231,224,12.828750016139104,224C12.051250015160976,224,11.27375001418285,224,10.496250013204723,224C9.718750012226595,224,8.941250011248467,224,8.16375001027034,224C6.997500008803148,224,5.8312500073359566,224,4.665000005868765,224C4.276250005379701,224,3.887500004890638,224,3.498750004401574,224C2.7212500034234464,224,1.943750002445319,224,1.1662500014671913,224Z"></path><path fill="none" stroke-width="2" stroke="#EA4335" stroke-dasharray="none" opacity="1" d="M1.1662500014671913,67.20000000000007C1.943750002445319,73.17333333333352,2.7212500034234464,79.14666666666695,3.498750004401574,80.6400000000001C3.887500004890638,81.38666666666667,4.276250005379701,81.75999999999996,4.665000005868765,81.75999999999996C5.8312500073359566,81.75999999999996,6.997500008803148,80.64,8.16375001027034,78.40000000000009C8.941250011248467,76.90666666666681,9.718750012226595,68.31999999999996,10.496250013204723,68.31999999999996C11.27375001418285,68.31999999999996,12.051250015160976,133.65333333333356,12.828750016139104,134.40000000000015C13.606250017117231,135.14666666666673,14.383750018095359,135.52000000000004,15.161250019073487,135.52000000000004C15.550000019562551,135.52000000000004,15.938750020051614,87.3600000000001,16.32750002054068,87.3600000000001C17.105000021518805,87.3600000000001,17.882500022496934,123.20000000000013,18.66000002347506,123.20000000000013C19.048750023964125,123.20000000000013,19.437500024453186,118.72000000000013,19.82625002494225,118.72000000000013C20.60375002592038,118.72000000000013,21.381250026898506,120.21333333333347,22.158750027876636,123.20000000000013C22.5475000283657,124.69333333333347,22.93625002885476,129.92000000000013,23.325000029343826,132.16000000000014C23.71375002983289,134.40000000000015,24.102500030321952,133.84000000000017,24.491250030811017,136.64000000000016C24.88000003130008,139.44000000000014,25.268750031789143,148.96000000000004,25.657500032278207,148.96000000000004C26.046250032767272,148.96000000000004,26.435000033256337,141.11999999999992,26.8237500337454,141.11999999999992C27.601250034723527,141.11999999999992,28.378750035701657,167.99999999999994,29.156250036679783,167.99999999999994C29.545000037168847,167.99999999999994,29.93375003765791,154.55999999999995,30.322500038146973,154.55999999999995C31.488750039614164,154.55999999999995,32.65500004108136,155.30666666666662,33.82125004254855,156.79999999999993C34.59875004352668,157.79555555555547,35.3762500445048,160.53333333333327,36.15375004548293,167.99999999999994C36.54250004597199,171.7333333333333,36.93125004646106,202.72000000000008,37.32000004695012,202.72000000000008C38.09750004792825,202.72000000000008,38.87500004890637,193.01333333333358,39.6525000498845,191.5200000000001C40.04125005037356,190.77333333333334,40.43000005086263,190.39999999999998,40.81875005135169,190.39999999999998C41.59625005232982,190.39999999999998,42.373750053307944,191.14666666666665,43.15125005428607,192.63999999999996C43.54000005477514,193.38666666666663,43.9287500552642,201.59999999999997,44.31750005575327,201.59999999999997C44.70625005624233,201.59999999999997,45.095000056731394,191.5200000000001,45.483750057220455,191.5200000000001C45.87250005770952,191.5200000000001,46.261250058198584,202.72000000000008,46.65000005868765,207.2000000000001C47.038750059176714,211.6800000000001,47.42750005966578,218.40000000000012,47.81625006015484,218.40000000000012C48.205000060643904,218.40000000000012,48.59375006113297,207.2000000000001,48.982500061622034,207.2000000000001C49.371250062111095,207.2000000000001,49.76000006260016,207.2000000000001,50.148750063089224,207.2000000000001C51.315000064556415,207.2000000000001,52.48125006602361,205.3333333333334,53.6475000674908,201.59999999999997C54.036250067979864,200.3555555555555,54.425000068468925,196.00000000000009,54.81375006895799,196.00000000000009C55.202500069447055,196.00000000000009,55.591250069936116,196.00000000000009,55.980000070425184,196.00000000000009C56.368750070914245,196.00000000000009,56.75750007140331,196.3733333333334,57.14625007189237,197.11999999999998C57.9237500728705,198.61333333333317,58.70125007384863,212.79999999999998,59.478750074826756,212.79999999999998C59.86750007531582,212.79999999999998,60.256250075804886,207.9466666666668,60.64500007629395,207.2000000000001C62.58875007873927,203.46666666666667,64.5325000811846,205.3333333333334,66.4762500836299,201.59999999999997C67.25375008460803,200.1066666666666,68.03125008558617,197.49333333333334,68.80875008656429,189.2800000000001C69.19750008705336,185.17333333333346,69.58625008754241,169.12000000000006,69.97500008803148,169.12000000000006C71.14125008949867,169.12000000000006,72.30750009096586,171.88266666666664,73.47375009243305,176.95999999999995C74.25125009341117,180.34488888888885,75.02875009438931,190.39999999999998,75.80625009536743,190.39999999999998C77.75000009781274,190.39999999999998,79.69375010025807,182.5600000000001,81.63750010270338,182.5600000000001C82.41500010368152,182.5600000000001,83.19250010465964,190.39999999999998,83.97000010563778,190.39999999999998C85.52500010759404,190.39999999999998,87.08000010955028,169.12000000000006,88.63500011150654,169.12000000000006C89.41250011248466,169.12000000000006,90.19000011346279,171.36000000000007,90.96750011444091,171.36000000000007C91.74500011541905,171.36000000000007,92.52250011639717,171.36000000000007,93.3000001173753,171.36000000000007C93.68875011786437,171.36000000000007,94.07750011835343,171.36000000000007,94.4662501188425,171.36000000000007C94.85500011933156,171.36000000000007,95.24375011982062,170.23999999999995,95.63250012030969,170.23999999999995C96.02125012079874,170.23999999999995,96.41000012128781,176.95999999999995,96.79875012177686,176.95999999999995C97.18750012226593,176.95999999999995,97.576250122755,157.92000000000007,97.96500012324407,157.92000000000007C100.68625012666752,157.92000000000007,103.40750013009095,172.46303030303022,106.1287501335144,179.19999999999993C107.68375013547066,183.0496969696969,109.2387501374269,184.8746666666667,110.79375013938316,190.39999999999998C111.18250013987223,191.78133333333332,111.5712501403613,194.87999999999997,111.96000014085037,194.87999999999997C112.73750014182849,194.87999999999997,113.51500014280661,194.87999999999997,114.29250014378474,194.87999999999997C116.23625014623005,194.87999999999997,118.18000014867538,190.02666666666667,120.12375015112069,180.32000000000008C120.51250015160976,178.37866666666673,120.90125015209883,163.51999999999992,121.2900001525879,163.51999999999992C121.67875015307696,163.51999999999992,122.06750015356602,163.51999999999992,122.45625015405508,163.51999999999992C122.84500015454415,163.51999999999992,123.2337501550332,157.92000000000007,123.62250015552227,157.92000000000007C124.01125015601134,157.92000000000007,124.4000001565004,160.96888888888896,124.78875015698947,162.40000000000006C126.73250015943479,169.5555555555556,128.67625016188012,179.19999999999993,130.62000016432543,179.19999999999993C131.7862501657926,179.19999999999993,132.9525001672598,157.92000000000007,134.118750168727,157.92000000000007C136.0625001711723,157.92000000000007,138.00625017361764,157.92000000000007,139.95000017606296,157.92000000000007C141.11625017753013,157.92000000000007,142.28250017899734,158.63555555555553,143.44875018046451,159.03999999999994C146.9475001848661,160.25333333333316,150.44625018926766,160.53333333333327,153.94500019366924,163.51999999999992C154.3337501941583,163.85185185185176,154.72250019464735,179.19999999999993,155.11125019513642,179.19999999999993C157.4437501980708,179.19999999999993,159.7762502010052,156.79999999999993,162.1087502039396,156.79999999999993C163.27500020540677,156.79999999999993,164.44125020687397,156.79999999999993,165.60750020834115,156.79999999999993C167.55125021078646,156.79999999999993,169.4950002132318,164.64000000000004,171.43875021567712,164.64000000000004C172.6050002171443,164.64000000000004,173.7712502186115,164.64000000000004,174.93750022007868,164.64000000000004C175.7150002210568,164.64000000000004,176.49250022203495,156.79999999999993,177.27000022301308,156.79999999999993C178.82500022496933,156.79999999999993,180.38000022692557,178.08000000000007,181.93500022888182,178.08000000000007C183.87875023132713,178.08000000000007,185.82250023377247,165.51111111111123,187.7662502362178,162.40000000000006C190.09875023915217,158.66666666666663,192.43125024208658,156.79999999999993,194.76375024502096,156.79999999999993C195.93000024648813,156.79999999999993,197.09625024795534,159.5333333333334,198.26250024942252,162.40000000000006C199.81750025137876,166.2222222222223,201.37250025333503,179.19999999999993,202.92750025529128,179.19999999999993C207.59250026116004,179.19999999999993,212.2575002670288,173.45066666666662,216.92250027289757,170.23999999999995C220.03250027681008,168.0995555555555,223.1425002807226,163.51999999999992,226.25250028463512,163.51999999999992C230.14000028952574,163.51999999999992,234.0275002944164,181.43999999999994,237.91500029930702,181.43999999999994C243.746250306643,181.43999999999994,249.57750031397893,179.19999999999993,255.4087503213149,179.19999999999993C256.186250322293,179.19999999999993,256.96375032327114,179.19999999999993,257.7412503242493,179.19999999999993C259.6850003266946,179.19999999999993,261.6287503291399,167.99999999999994,263.5725003315852,167.99999999999994C266.29375033500867,167.99999999999994,269.0150003384321,171.73333333333326,271.73625034185557,179.19999999999993C272.1250003423446,180.2666666666666,272.5137503428337,184.80000000000007,272.90250034332274,184.80000000000007C273.6800003443009,184.80000000000007,274.457500345279,175.84000000000006,275.23500034625715,175.84000000000006C276.0125003472353,175.84000000000006,276.79000034821337,175.84000000000006,277.5675003491915,175.84000000000006C277.95625034968054,175.84000000000006,278.34500035016964,175.84000000000006,278.7337503506587,175.84000000000006C279.5112503516368,175.84000000000006,280.28875035261495,167.87555555555556,281.0662503535931,163.51999999999992C281.45500035408213,161.34222222222215,281.8437503545712,158.60444444444437,282.23250035506027,156.79999999999993C283.0100003560384,153.19111111111096,283.78750035701654,154.9333333333333,284.5650003579947,151.20000000000005C284.9537503584837,149.33333333333346,285.3425003589728,142.24000000000004,285.73125035946185,142.24000000000004C290.0075003648416,142.24000000000004,294.28375037022124,153.99999999999994,298.56000037560096,156.79999999999993C300.11500037755724,157.81818181818176,301.67000037951345,159.03999999999994,303.2250003814697,159.03999999999994C304.780000383426,159.03999999999994,306.3350003853822,154.55999999999995,307.8900003873385,154.55999999999995C311.000000391251,154.55999999999995,314.1100003951635,155.68000000000006,317.220000399076,155.68000000000006C319.1637504015213,155.68000000000006,321.10750040396664,153.44000000000005,323.05125040641195,153.44000000000005C323.44000040690105,153.44000000000005,323.8287504073901,153.44000000000005,324.2175004078792,153.44000000000005C324.6062504083682,153.44000000000005,324.9950004088573,145.5999999999999,325.38375040934636,145.5999999999999C326.1612504103245,145.5999999999999,326.9387504113026,157.92000000000007,327.7162504122807,157.92000000000007C328.10500041276975,157.92000000000007,328.49375041325885,157.92000000000007,328.8825004137479,157.92000000000007C330.8262504161932,157.92000000000007,332.7700004186386,150.07999999999993,334.7137504210839,150.07999999999993C343.6550004323324,150.07999999999993,352.5962504435808,150.07999999999993,361.5375004548293,150.07999999999993C365.4250004597199,150.07999999999993,369.3125004646106,150.07999999999993,373.2000004695012,150.07999999999993C373.97750047047936,150.07999999999993,374.75500047145744,141.11999999999992,375.5325004724356,141.11999999999992C378.253750475859,141.11999999999992,380.97500047928247,155.68000000000006,383.6962504827059,155.68000000000006C384.47375048368406,155.68000000000006,385.25125048466214,143.73333333333318,386.0287504856403,143.3599999999999C387.58375048759655,142.61333333333332,389.1387504895528,142.6288888888889,390.6937504915091,142.24000000000004C403.1337505071591,139.1288888888893,415.5737505228092,138.1333333333334,428.0137505384592,129.92000000000013C429.56875054041546,128.89333333333346,431.1237505423717,124.94222222222236,432.67875054432795,123.20000000000013C435.0112505472623,120.5866666666668,437.3437505501967,118.72000000000013,439.67625055313107,118.72000000000013C440.4537505541092,118.72000000000013,441.23125055508734,123.20000000000013,442.0087505560655,123.20000000000013C442.3975005565545,123.20000000000013,442.7862505570436,123.20000000000013,443.17500055753266,123.20000000000013C445.50750056046707,123.20000000000013,447.8400005634014,119.88751515151527,450.1725005663358,118.72000000000013C452.11625056878114,117.74707070707083,454.06000057122645,116.48000000000013,456.00375057367177,116.48000000000013C456.7812505746499,116.48000000000013,457.55875057562804,116.48000000000013,458.3362505766062,116.48000000000013C460.2800005790515,116.48000000000013,462.2237505814968,116.48000000000013,464.1675005839421,116.48000000000013C468.8325005898109,116.48000000000013,473.49750059567964,112.00000000000013,478.1625006015484,112.00000000000013C478.94000060252654,112.00000000000013,479.7175006035046,113.12,480.49500060448275,113.12C483.99375060888434,113.12,487.4925006132859,98.2545454545454,490.9912506176875,95.19999999999999C495.26750062306724,91.46666666666674,499.5437506284469,89.60000000000011,503.8200006338266,89.60000000000011C504.59750063480476,89.60000000000011,505.3750006357829,91.84000000000012,506.15250063676103,91.84000000000012C509.2625006406735,91.84000000000012,512.372500644586,89.60000000000011,515.4825006484986,89.60000000000011C519.7587506538782,89.60000000000011,524.035000659258,90.71999999999997,528.3112506646377,90.71999999999997C528.7000006651267,90.71999999999997,529.0887506656157,89.60000000000011,529.4775006661048,89.60000000000011C530.643750667572,89.60000000000011,531.8100006690391,95.19999999999999,532.9762506705064,95.19999999999999C536.475000674908,95.19999999999999,539.9737506793095,95.19999999999999,543.4725006837111,95.19999999999999C543.8612506842002,95.19999999999999,544.2500006846893,82.88000000000011,544.6387506851784,82.88000000000011C548.915000690558,82.88000000000011,553.1912506959377,89.60000000000011,557.4675007013174,89.60000000000011C559.0225007032736,89.60000000000011,560.5775007052299,89.60000000000011,562.1325007071862,89.60000000000011C564.8537507106096,89.60000000000011,567.5750007140331,89.13003921568628,570.2962507174565,88.47999999999999C574.1837507223471,87.55137254901956,578.0712507272378,83.99999999999997,581.9587507321285,83.99999999999997C584.6800007355519,83.99999999999997,587.4012507389754,89.60000000000011,590.1225007423988,89.60000000000011C590.5112507428878,89.60000000000011,590.900000743377,85.8666666666669,591.288750743866,85.12000000000009C591.677500744355,84.37333333333335,592.0662507448441,83.99999999999997,592.4550007453331,83.99999999999997C593.2325007463112,83.99999999999997,594.0100007472894,85.52444444444443,594.7875007482675,86.23999999999998C597.1200007512019,88.38666666666673,599.4525007541363,90.11333333333341,601.7850007570707,91.84000000000012"></path><line x1="0" y1="47.04000000000005" x2="632" y2="47.04000000000005" style="stroke-dasharray: 1.5px, 7.5px; stroke: rgba(0, 0, 0, 0.62);"></line></g><g class="NuOFub"><line class="IThbXb" y1="224" y2="0" style="fill: none; stroke-width: 2px; stroke: rgb(32, 33, 36); stroke-dasharray: 1.5px, 6px; stroke-linecap: round; opacity: 0;" x1="601.7850007570707" x2="601.7850007570707"></line><line class="S1pwT" y1="224" y2="0" style="fill: none; stroke-width: 2px; stroke: rgb(32, 33, 36); stroke-dasharray: 1.5px, 6px; stroke-linecap: round; opacity: 0;"></line><circle class="eLYY7" r="5" style="fill: rgb(234, 67, 53); opacity: 1;" cx="601.7850007570707" cy="91.84000000000012"></circle><circle class="hulySc" r="5" style="fill: rgb(234, 67, 53); opacity: 0;"></circle></g><g class="Zelcpf"><rect width="634.4500007629395" height="224" fill="none" pointer-events="all"></rect></g></g></svg>
